<svg width="20" height="21" viewBox="0 0 20 21" fill="none" xmlns="http://www.w3.org/2000/svg">
<path d="M16.025 13.2166L13.9084 12.975C13.6595 12.9457 13.4072 12.9733 13.1705 13.0556C12.9338 13.1378 12.7188 13.2727 12.5417 13.45L11.0084 14.9833C8.64286 13.7799 6.72009 11.8571 5.5167 9.49164L7.05837 7.94997C7.4167 7.59164 7.5917 7.09164 7.53337 6.5833L7.2917 4.4833C7.24463 4.07671 7.04959 3.70166 6.74375 3.42963C6.43792 3.15761 6.04268 3.00763 5.63337 3.0083H4.1917C3.25003 3.0083 2.4667 3.79164 2.52503 4.7333C2.9667 11.85 8.65837 17.5333 15.7667 17.975C16.7084 18.0333 17.4917 17.25 17.4917 16.3083V14.8666C17.5 14.025 16.8667 13.3166 16.025 13.2166Z" fill="white"/>
</svg>
