<svg width="20" height="15" viewBox="0 0 20 15" fill="none" xmlns="http://www.w3.org/2000/svg">
<path d="M12.9592 8.33008L11.2842 10.0108C10.6049 10.6924 9.40979 10.7071 8.71584 10.0108L7.04072 8.33008L1.02448 14.3659C1.24842 14.4694 1.49533 14.5312 1.75783 14.5312H18.2422C18.5047 14.5312 18.7515 14.4695 18.9754 14.3659L12.9592 8.33008Z" fill="white"/>
<path d="M18.2422 0.46875H1.75781C1.49531 0.46875 1.2484 0.530547 1.02453 0.634102L7.45332 7.08422C7.45375 7.08465 7.45426 7.08473 7.45469 7.08516C7.45495 7.08544 7.45513 7.08579 7.4552 7.08617L9.54555 9.18344C9.76758 9.40547 10.2325 9.40547 10.4545 9.18344L12.5445 7.08652C12.5445 7.08652 12.545 7.08559 12.5454 7.08516C12.5454 7.08516 12.5463 7.08465 12.5468 7.08422L18.9754 0.634063C18.7515 0.530469 18.5047 0.46875 18.2422 0.46875ZM0.186953 1.45359C0.0710937 1.68789 0 1.94797 0 2.22656V12.7734C0 13.052 0.0710156 13.3121 0.186914 13.5464L6.21359 7.5002L0.186953 1.45359ZM19.813 1.45352L13.7864 7.5002L19.813 13.5465C19.9289 13.3122 20 13.0521 20 12.7734V2.22656C20 1.94789 19.9289 1.68781 19.813 1.45352Z" fill="white"/>
</svg>
