<svg width="28" height="28" viewBox="0 0 28 28" fill="none" xmlns="http://www.w3.org/2000/svg">
<path d="M14.0035 0H13.9965C6.27725 0 0 6.279 0 14C0 17.0625 0.987 19.901 2.66525 22.2057L0.9205 27.4067L6.30175 25.6865C8.5155 27.153 11.1562 28 14.0035 28C21.7227 28 28 21.7192 28 14C28 6.28075 21.7227 0 14.0035 0Z" fill="#4CAF50"/>
<path d="M22.15 19.7698C21.8122 20.7235 20.4717 21.5145 19.4025 21.7455C18.671 21.9013 17.7155 22.0255 14.499 20.692C10.3847 18.9875 7.73521 14.8068 7.52871 14.5355C7.33096 14.2643 5.86621 12.3218 5.86621 10.3128C5.86621 8.30376 6.88646 7.32551 7.29771 6.90551C7.63546 6.56076 8.19371 6.40326 8.72921 6.40326C8.90246 6.40326 9.05821 6.41201 9.19821 6.41901C9.60946 6.43651 9.81596 6.46101 10.0872 7.11026C10.425 7.92401 11.2475 9.93301 11.3455 10.1395C11.4452 10.346 11.545 10.626 11.405 10.8973C11.2737 11.1773 11.1582 11.3015 10.9517 11.5395C10.7452 11.7775 10.5492 11.9595 10.3427 12.215C10.1537 12.4373 9.94021 12.6753 10.1782 13.0865C10.4162 13.489 11.2387 14.8313 12.4497 15.9093C14.0125 17.3005 15.2795 17.745 15.7327 17.934C16.0705 18.074 16.473 18.0408 16.7197 17.7783C17.033 17.4405 17.4197 16.8805 17.8135 16.3293C18.0935 15.9338 18.447 15.8848 18.818 16.0248C19.196 16.156 21.1962 17.1448 21.6075 17.3495C22.0187 17.556 22.29 17.654 22.3897 17.8273C22.4877 18.0005 22.4877 18.8143 22.15 19.7698Z" fill="#FAFAFA"/>
</svg>
