<svg width="40" height="25" viewBox="0 0 40 25" fill="none" xmlns="http://www.w3.org/2000/svg">
<path d="M27.0194 14.7871C25.694 13.6018 23.978 12.9471 22.2 12.9484H17.8065C16.0271 12.9464 14.3102 13.6038 12.9871 14.7936L12.9716 14.8084L12.9574 14.8226C12.2104 15.4981 11.6134 16.3229 11.2051 17.2437C10.7968 18.1644 10.5863 19.1605 10.5871 20.1677V24.3484C10.5871 24.5195 10.6551 24.6836 10.7761 24.8046C10.8971 24.9256 11.0612 24.9936 11.2323 24.9936H28.7742C28.9453 24.9936 29.1094 24.9256 29.2304 24.8046C29.3514 24.6836 29.4194 24.5195 29.4194 24.3484V20.1677C29.4207 19.1525 29.2076 18.1483 28.7941 17.2211C28.3805 16.2938 27.7757 15.4644 27.0194 14.7871ZM12.129 13.8323C12.64 13.3714 13.2055 12.9749 13.8129 12.6516C13.4668 11.5497 12.7786 10.5867 11.8482 9.9023C10.9179 9.21787 9.7937 8.84759 8.63871 8.84516H5.43226C3.99221 8.84738 2.61179 9.42042 1.59352 10.4387C0.575256 11.457 0.00221821 12.8374 0 14.2774V17.3226C0 17.4937 0.0679721 17.6578 0.188963 17.7788C0.309955 17.8998 0.474054 17.9677 0.645161 17.9677H9.59355C9.72482 17.4565 9.90635 16.9594 10.1355 16.4839C10.6176 15.4765 11.2952 14.5752 12.129 13.8323ZM34.5742 8.84516H31.3677C30.2128 8.84759 29.0886 9.21787 28.1582 9.9023C27.2279 10.5867 26.5397 11.5497 26.1935 12.6516C26.7984 12.9764 27.3635 13.3705 27.8774 13.8258C28.7093 14.5705 29.3867 15.4714 29.871 16.4774C30.1001 16.9552 30.2817 17.4544 30.4129 17.9677H39.3548C39.5259 17.9677 39.69 17.8998 39.811 17.7788C39.932 17.6578 40 17.4937 40 17.3226V14.2774C39.9991 12.8381 39.4274 11.4578 38.4103 10.4395C37.3931 9.42108 36.0135 8.84773 34.5742 8.84516ZM7.03871 8.22581C7.85216 8.22517 8.64716 7.98333 9.32317 7.53087C9.99918 7.0784 10.5258 6.43564 10.8365 5.68386C11.1472 4.93209 11.228 4.10505 11.0687 3.30735C10.9094 2.50965 10.5171 1.77711 9.94146 1.20236C9.36581 0.627615 8.63266 0.236474 7.83471 0.0784021C7.03676 -0.0796694 6.20985 0.00242835 5.45856 0.314314C4.70727 0.626199 4.06534 1.15386 3.61394 1.83058C3.16254 2.5073 2.92194 3.30268 2.92258 4.11613C2.92429 5.20668 3.35871 6.25197 4.13045 7.0225C4.90218 7.79303 5.94816 8.22581 7.03871 8.22581ZM32.9677 8.22581C33.7815 8.22645 34.5771 7.98569 35.254 7.534C35.9308 7.08232 36.4585 6.44 36.7702 5.68833C37.0819 4.93667 37.1636 4.10944 37.005 3.31131C36.8464 2.51318 36.4546 1.78004 35.8792 1.20464C35.3038 0.62925 34.5707 0.237468 33.7726 0.0788734C32.9744 -0.079721 32.1472 0.00200002 31.3955 0.313696C30.6439 0.625391 30.0016 1.15305 29.5499 1.82991C29.0982 2.50677 28.8574 3.3024 28.8581 4.11613C28.8601 5.20546 29.2937 6.24958 30.064 7.01985C30.8343 7.79012 31.8784 8.22376 32.9677 8.22581ZM20 11.6194C21.0702 11.62 22.1166 11.3032 23.0067 10.709C23.8968 10.1148 24.5907 9.26998 25.0005 8.28136C25.4103 7.29274 25.5177 6.20477 25.3091 5.1551C25.1005 4.10542 24.5852 3.14121 23.8284 2.38446C23.0717 1.62771 22.1075 1.11242 21.0578 0.90379C20.0081 0.695159 18.9202 0.802561 17.9315 1.21241C16.9429 1.62225 16.0981 2.31612 15.5039 3.20624C14.9097 4.09635 14.5929 5.1427 14.5935 6.2129C14.5958 7.6461 15.1661 9.01997 16.1795 10.0334C17.1929 11.0468 18.5668 11.6171 20 11.6194Z" fill="#464646"/>
</svg>
