<svg width="36" height="36" viewBox="0 0 36 36" fill="none" xmlns="http://www.w3.org/2000/svg">
<path d="M32.1429 15.4286H31.3843L21.4714 5.51571C21.7157 5.00143 21.8571 4.44857 21.8571 3.85714C21.8571 1.73571 20.1214 0 18 0C15.8786 0 14.1429 1.73571 14.1429 3.85714C14.1429 4.44857 14.2843 5.00143 14.5286 5.51571L4.61571 15.4286H3.85714C1.73571 15.4286 0 17.1643 0 19.2857V32.1429C0 34.2643 1.73571 36 3.85714 36H32.1429C34.2643 36 36 34.2643 36 32.1429V19.2857C36 17.1643 34.2643 15.4286 32.1429 15.4286ZM16.3414 7.32857C16.8557 7.57286 17.4086 7.71429 18 7.71429C18.5914 7.71429 19.1443 7.57286 19.6586 7.32857L27.7586 15.4286H8.24143L16.3414 7.32857ZM7.07143 24.4286C7.92391 24.4286 8.74148 24.7672 9.34427 25.37C9.94707 25.9728 10.2857 26.7904 10.2857 27.6429C10.2857 28.4953 9.94707 29.3129 9.34427 29.9157C8.74148 30.5185 7.92391 30.8571 7.07143 30.8571H5.14286C4.43571 30.8571 3.85714 30.2786 3.85714 29.5714C3.85714 28.8643 4.43571 28.2857 5.14286 28.2857H7.07143C7.43143 28.2857 7.71429 28.0029 7.71429 27.6429C7.71429 27.2829 7.43143 27 7.07143 27C6.21895 27 5.40138 26.6614 4.79859 26.0586C4.19579 25.4558 3.85714 24.6382 3.85714 23.7857C3.85714 22.9332 4.19579 22.1157 4.79859 21.5129C5.40138 20.9101 6.21895 20.5714 7.07143 20.5714H9C9.70714 20.5714 10.2857 21.15 10.2857 21.8571C10.2857 22.5643 9.70714 23.1429 9 23.1429H7.07143C6.71143 23.1429 6.42857 23.4257 6.42857 23.7857C6.42857 24.1457 6.71143 24.4286 7.07143 24.4286ZM15.4286 24.4286C16.1357 24.4286 16.7143 25.0071 16.7143 25.7143C16.7143 26.4214 16.1357 27 15.4286 27H14.1429V28.2857H15.4286C16.1357 28.2857 16.7143 28.8643 16.7143 29.5714C16.7143 30.2786 16.1357 30.8571 15.4286 30.8571H12.8571C12.15 30.8571 11.5714 30.2786 11.5714 29.5714V21.8571C11.5714 21.15 12.15 20.5714 12.8571 20.5714H15.4286C16.1357 20.5714 16.7143 21.15 16.7143 21.8571C16.7143 22.5643 16.1357 23.1429 15.4286 23.1429H14.1429V24.4286H15.4286ZM23.1429 30.8571H19.2857C18.5786 30.8571 18 30.2786 18 29.5714V21.8571C18 21.15 18.5786 20.5714 19.2857 20.5714C19.9929 20.5714 20.5714 21.15 20.5714 21.8571V28.2857H23.1429C23.85 28.2857 24.4286 28.8643 24.4286 29.5714C24.4286 30.2786 23.85 30.8571 23.1429 30.8571ZM30.8571 30.8571H27C26.2929 30.8571 25.7143 30.2786 25.7143 29.5714V21.8571C25.7143 21.15 26.2929 20.5714 27 20.5714C27.7071 20.5714 28.2857 21.15 28.2857 21.8571V28.2857H30.8571C31.5643 28.2857 32.1429 28.8643 32.1429 29.5714C32.1429 30.2786 31.5643 30.8571 30.8571 30.8571Z" fill="#5B5B5B"/>
</svg>
