<svg width="36" height="38" viewBox="0 0 36 38" fill="none" xmlns="http://www.w3.org/2000/svg">
<path d="M33.0969 17.4082C31.9613 18.683 30.8487 20.0563 30.0723 21.9509C29.7189 22.8259 28.8787 23.3937 27.9342 23.3937C26.9839 23.3937 26.1438 22.8259 25.7846 21.9452C24.8864 19.7433 23.5247 18.2427 22.2036 16.7941C21.8734 16.429 21.5431 16.064 21.2187 15.6874C21.2013 15.6932 21.1896 15.699 21.1723 15.7047C19.886 16.0929 18.8951 17.7964 19.492 19.1813C19.8976 20.1315 22.7426 19.9519 22.4993 21.9973C22.2965 23.6718 24.4866 24.1121 25.263 24.0311C26.0395 23.9384 27.2331 25.3059 26.6305 25.9085C26.0338 26.5111 24.9038 26.5343 25.0776 28.0871C25.1239 28.5391 26.4915 28.4812 26.4915 29.1649C26.4915 29.8544 25.7846 30.6366 26.3292 31.4305C26.4452 31.6042 26.5668 31.7375 26.6943 31.8418C24.0753 34.2523 20.5813 35.7298 16.7513 35.7298C8.65667 35.7298 2.07435 29.1474 2.07435 21.0528C2.07435 18.5961 2.6828 16.2783 3.75473 14.2387C3.74892 16.8752 5.15694 19.0654 5.81746 19.7259C7.97292 21.8756 11.0961 21.1976 11.4958 22.9996C11.9014 24.7959 9.35191 24.8017 9.51999 26.1749C9.69376 27.5539 13.0139 27.919 12.2723 29.1879C11.293 30.874 12.9328 30.9957 12.4577 33.0758C12.2028 34.2115 13.8425 34.4317 14.451 33.5684C14.9145 32.9079 14.8218 32.0966 15.7547 31.1059C16.8961 29.889 19.5442 29.692 19.2486 27.6814C18.7445 24.3439 15.4997 23.8224 14.0859 23.0401C12.4809 22.1594 12.8749 20.0445 12.5272 19.0363C12.0405 17.6051 10.3891 19.4361 9.50838 18.6017C8.05984 17.2343 9.76912 15.299 10.9859 15.3396C13.5528 15.4207 14.3408 17.9181 15.2852 17.8311C16.2065 17.75 16.8034 16.4636 16.9656 15.78C17.3075 14.2908 16.3862 14.9572 16.0153 14.1807C15.517 13.1435 17.7652 12.1527 18.6343 11.3879C18.7676 11.272 18.8661 11.1619 18.9182 11.0576C19.1791 10.5477 18.8372 10.1595 18.2577 9.80602C17.0989 9.10485 14.984 8.54866 14.8855 7.45357C14.8275 6.78137 16.1139 6.45695 17.5798 6.39901C17.8231 6.41062 18.0607 6.43378 18.3042 6.45695C18.4264 5.76578 18.6226 5.08976 18.8893 4.44054C18.1882 4.34782 17.4756 4.30143 16.7512 4.30143C7.51513 4.30143 3.80799e-10 11.8166 3.80799e-10 21.0527C-6.17712e-05 30.2891 7.51513 37.8042 16.7512 37.8042C25.9873 37.8042 33.5026 30.289 33.5026 21.0529C33.5026 19.8013 33.3635 18.5788 33.0969 17.4082ZM27.146 0.0372092C22.4172 0.484189 19.1784 5.06622 20.0037 9.74388C20.8419 14.4954 25.2228 15.958 27.3969 21.2916C27.5929 21.7722 28.2696 21.7746 28.4654 21.2939C30.8755 15.3783 36 14.2239 36 8.06826C35.9999 3.35305 31.9551 -0.417368 27.146 0.0372092ZM27.9316 12.3291C25.5784 12.3291 23.6707 10.4215 23.6707 8.06826C23.6707 5.71507 25.5784 3.80744 27.9316 3.80744C30.2849 3.80744 32.1925 5.71507 32.1925 8.06826C32.1925 10.4214 30.2848 12.3291 27.9316 12.3291Z" fill="#5B5B5B"/>
</svg>
