<svg width="23" height="23" viewBox="0 0 23 23" fill="none" xmlns="http://www.w3.org/2000/svg">
<path d="M11.1667 0C5.0027 0 0 5.0027 0 11.1667C0 17.3308 5.0027 22.3335 11.1667 22.3335C17.3308 22.3335 22.3335 17.3308 22.3335 11.1667C22.3335 5.0027 17.3308 0 11.1667 0ZM7.80556 13.5341C8.37506 13.5341 8.9334 13.3219 9.3689 12.9423C9.71507 12.6408 10.2511 12.6743 10.5526 13.0204C10.8541 13.3666 10.8206 13.9026 10.4744 14.2041C9.98327 14.6361 9.39467 14.9424 8.75911 15.0969C8.12354 15.2514 7.45999 15.2494 6.82536 15.0911C6.19074 14.9328 5.60399 14.6229 5.11545 14.188C4.62691 13.7531 4.25117 13.2062 4.02045 12.5942C3.78973 11.9821 3.71093 11.3233 3.7908 10.6741C3.87067 10.0249 4.10684 9.40481 4.47903 8.86696C4.85122 8.32911 5.34834 7.88958 5.92773 7.58607C6.50712 7.28256 7.15148 7.12414 7.80556 7.12439C8.78823 7.12439 9.72624 7.48172 10.4744 8.12939C10.8206 8.43089 10.8541 8.9669 10.5526 9.31307C10.2511 9.65924 9.71507 9.69274 9.3689 9.39123C8.93603 9.01218 8.38093 8.80204 7.80556 8.7994C7.19028 8.8183 6.60654 9.076 6.178 9.5179C5.74947 9.9598 5.50981 10.5512 5.50981 11.1667C5.50981 11.7823 5.74947 12.3737 6.178 12.8156C6.60654 13.2575 7.19028 13.5152 7.80556 13.5341ZM15.6223 13.5341C16.1918 13.5341 16.7501 13.3219 17.1856 12.9423C17.5318 12.6408 18.0678 12.6743 18.3693 13.0204C18.6708 13.3666 18.6373 13.9026 18.2911 14.2041C17.8 14.6361 17.2114 14.9424 16.5758 15.0969C15.9403 15.2514 15.2767 15.2494 14.6421 15.0911C14.0075 14.9328 13.4207 14.6229 12.9322 14.188C12.4436 13.7531 12.0679 13.2062 11.8372 12.5942C11.6065 11.9821 11.5277 11.3233 11.6075 10.6741C11.6874 10.0249 11.9236 9.40481 12.2958 8.86696C12.6679 8.32911 13.1651 7.88958 13.7445 7.58607C14.3238 7.28256 14.9682 7.12414 15.6223 7.12439C16.605 7.12439 17.543 7.48172 18.2911 8.12939C18.6373 8.43089 18.6708 8.9669 18.3693 9.31307C18.0678 9.65924 17.5318 9.69274 17.1856 9.39123C16.7538 9.01041 16.198 8.80001 15.6223 8.7994C15.007 8.8183 14.4233 9.076 13.9947 9.5179C13.5662 9.9598 13.3265 10.5512 13.3265 11.1667C13.3265 11.7823 13.5662 12.3737 13.9947 12.8156C14.4233 13.2575 15.007 13.5152 15.6223 13.5341Z" fill="#333333"/>
</svg>
