<svg width="19" height="19" viewBox="0 0 19 19" fill="none" xmlns="http://www.w3.org/2000/svg">
<g clip-path="url(#clip0_74_199)">
<path d="M4.09442 3.49817H8.94336V7.15467H4.09442V3.49817Z" fill="#333333"/>
<path d="M18.4434 2.38491H18.4038V1.15288C18.4038 0.845463 18.1546 0.596236 17.8472 0.596236C17.5397 0.596236 17.2905 0.845463 17.2905 1.15288V2.38491H16.0189V1.15288C16.0189 0.845463 15.7696 0.596236 15.4622 0.596236C15.1548 0.596236 14.9056 0.845463 14.9056 1.15288V2.38491H14.866C14.5586 2.38491 14.3094 2.63413 14.3094 2.94155V4.73022C14.3094 5.83163 15.0728 6.75762 16.0981 7.00822V14.866C16.0981 15.2166 15.8128 15.5018 15.4622 15.5018C15.1116 15.5018 14.8264 15.2166 14.8264 14.866V9.5C14.8264 8.06836 13.7982 6.87299 12.4415 6.612V2.04718C12.4415 0.918346 11.5231 0 10.3943 0H2.64338C1.51458 0 0.596199 0.918346 0.596199 2.04718V17.8867H0.556641C0.249227 17.8867 0 18.1359 0 18.4434C0 18.7508 0.249227 19 0.556641 19H12.4811C12.7885 19 13.0377 18.7508 13.0377 18.4434C13.0377 18.1359 12.7885 17.8867 12.4811 17.8867H12.4415V7.75868C13.1782 7.99473 13.7131 8.68593 13.7131 9.5V14.866C13.7131 15.8305 14.4978 16.6151 15.4622 16.6151C16.4267 16.6151 17.2114 15.8305 17.2114 14.866V7.00822C18.2367 6.75762 19 5.83159 19 4.73022V2.94155C19 2.6341 18.7508 2.38491 18.4434 2.38491ZM8.28374 13.3263L7.01672 15.8602C6.91919 16.0553 6.72259 16.168 6.51841 16.168C6.43212 16.168 6.34702 16.1478 6.26989 16.1091C5.99495 15.9717 5.88351 15.6373 6.021 15.3624L6.88516 13.634H5.2519C5.15702 13.634 5.06372 13.6097 4.98085 13.5635C4.89798 13.5173 4.82829 13.4507 4.77841 13.37C4.72853 13.2893 4.70011 13.1972 4.69585 13.1024C4.69158 13.0076 4.71161 12.9133 4.75404 12.8284L6.021 10.2945C6.15845 10.0195 6.4928 9.90794 6.76779 10.0455C7.04273 10.183 7.15421 10.5174 7.01672 10.7923L6.15255 12.5207H7.78588C7.88077 12.5207 7.97409 12.5449 8.05697 12.5911C8.13985 12.6373 8.20954 12.704 8.25943 12.7847C8.30931 12.8654 8.33773 12.9575 8.34199 13.0523C8.34624 13.1471 8.32619 13.2414 8.28374 13.3263ZM10.0566 7.71133C10.0566 8.01874 9.80741 8.26797 9.5 8.26797H3.53779C3.23037 8.26797 2.98114 8.01874 2.98114 7.71133V2.94155C2.98114 2.63413 3.23037 2.38491 3.53779 2.38491H9.5C9.80741 2.38491 10.0566 2.63413 10.0566 2.94155V7.71133Z" fill="#333333"/>
</g>
<defs>
<clipPath id="clip0_74_199">
<rect width="19" height="19" fill="white"/>
</clipPath>
</defs>
</svg>
