<svg width="27" height="18" viewBox="0 0 27 18" fill="none" xmlns="http://www.w3.org/2000/svg">
<path d="M26.1212 16.7342L26.1152 16.5631C26.1131 16.5058 26.111 16.4484 26.1089 16.3907L26.1073 16.3475L26.1064 16.3259L26.1062 16.3205L26.1057 16.2721L26.1055 16.2698L26.1048 16.2609L26.0993 16.1892L26.0769 15.9013L26.0712 15.8286L26.0627 15.7343L26.0449 15.5463L26.0265 15.3593L26.0171 15.2663L26.0057 15.1806C25.9743 14.9539 25.9464 14.7312 25.9065 14.517C25.8876 14.4099 25.8702 14.3045 25.8506 14.2018L25.788 13.9017C25.7494 13.7065 25.701 13.5242 25.6602 13.3557L25.6295 13.2322L25.5969 13.1149C25.5754 13.0389 25.5551 12.9667 25.5359 12.8989C25.5163 12.8312 25.4991 12.7677 25.4811 12.7095L25.4302 12.5499L25.3731 12.3724C25.3623 12.3389 25.3389 12.311 25.3079 12.2944C25.2769 12.2779 25.2407 12.2741 25.2069 12.2837L20.7901 13.5424C20.7576 13.5516 20.7297 13.5726 20.7119 13.6013C20.6942 13.63 20.6877 13.6643 20.6939 13.6974L20.7102 13.7855L20.7311 13.8953C20.7383 13.9354 20.7439 13.9793 20.7512 14.0257L20.7737 14.1737C20.7776 14.1997 20.7822 14.2263 20.7858 14.2537L20.7954 14.3381C20.8077 14.4532 20.8261 14.5766 20.8343 14.7088L20.851 14.9113C20.8553 14.9805 20.8575 15.0514 20.8612 15.1233C20.8707 15.2666 20.8689 15.4159 20.8717 15.5664L20.8723 15.6225L20.8703 15.6721L20.8669 15.7716L20.8642 15.8711L20.8632 15.9208L20.8601 15.9924C20.8561 16.0887 20.8519 16.1849 20.8478 16.2808L20.8448 16.3527L20.8443 16.3616L20.8443 16.3638C20.8443 16.3747 20.8434 16.2783 20.8437 16.3199L20.8434 16.3235L20.842 16.3376L20.8394 16.366L20.8292 16.4788L20.8195 16.5905C20.8151 16.6274 20.8107 16.6641 20.8063 16.7006C20.7969 16.7735 20.7911 16.8457 20.7795 16.916L20.7496 17.1232L20.7153 17.3203C20.7052 17.3843 20.6918 17.446 20.6798 17.5058C20.6672 17.5654 20.6572 17.6233 20.6442 17.6782C20.6266 17.7548 20.6089 17.8314 20.5912 17.908L20.575 17.9664L20.566 18H25.968C26.0404 18 26.1007 17.9432 26.1035 17.8708L26.1035 17.8695L26.1174 17.5601L26.1235 17.2372C26.1266 17.1277 26.1233 17.0164 26.123 16.9038C26.1224 16.8476 26.1218 16.791 26.1212 16.7342ZM24.7165 11.0643C24.7337 11.0574 24.7493 11.0471 24.7623 11.034C24.7753 11.0209 24.7855 11.0053 24.7923 10.988C24.799 10.9708 24.8022 10.9524 24.8016 10.934C24.8009 10.9155 24.7965 10.8973 24.7886 10.8806L24.7368 10.7711C24.7163 10.728 24.6958 10.685 24.6754 10.6419L24.582 10.4517C24.5484 10.3841 24.5127 10.3121 24.475 10.2363C24.4559 10.1968 24.4371 10.1643 24.4174 10.1273L24.3573 10.0163C24.3161 9.94081 24.274 9.86191 24.2289 9.78112C24.1807 9.69861 24.1325 9.61609 24.0844 9.53357L24.0088 9.40476L23.9277 9.27488L23.7597 9.00796C23.6393 8.83059 23.5195 8.64508 23.3857 8.46454C23.3529 8.41908 23.3199 8.37346 23.2868 8.3277L23.237 8.25912L23.1852 8.19166L22.9768 7.92183C22.906 7.83282 22.8327 7.74567 22.7609 7.65819C22.7246 7.61474 22.6894 7.57066 22.6524 7.5282L22.5413 7.40162C22.5043 7.35974 22.4676 7.31794 22.431 7.27639C22.3949 7.23477 22.3579 7.19397 22.3201 7.15401L22.0984 6.91793C22.0255 6.84065 21.9501 6.76803 21.8783 6.69543C21.806 6.62321 21.7357 6.55229 21.6639 6.48643L21.4571 6.29283C21.3906 6.23016 21.3227 6.17323 21.2594 6.11686L21.0764 5.95684L20.9071 5.81733L20.7581 5.69518C20.712 5.65759 20.668 5.625 20.6291 5.59461C20.5816 5.5582 20.5342 5.52178 20.4867 5.48536C20.4589 5.46399 20.4238 5.45428 20.389 5.45826C20.3541 5.46224 20.3221 5.47961 20.2998 5.5067L17.9292 8.37618C17.9076 8.40224 17.8966 8.43544 17.8983 8.46923C17.8999 8.50302 17.9142 8.53497 17.9382 8.55878C17.958 8.57836 17.9809 8.60102 18.0067 8.62652C18.0313 8.65129 18.0596 8.67753 18.0886 8.70816L18.1823 8.80727L18.289 8.91942L18.4031 9.04784C18.4423 9.09299 18.4852 9.13782 18.526 9.18781L18.6535 9.34107C18.6981 9.39271 18.7406 9.44879 18.7847 9.50543C18.8283 9.56247 18.8748 9.61871 18.9186 9.67901L19.052 9.86211C19.075 9.89293 19.0971 9.92442 19.1183 9.95654L19.1838 10.053C19.2057 10.0851 19.2278 10.1174 19.2499 10.1498C19.2719 10.1821 19.2922 10.216 19.3135 10.2492C19.3553 10.316 19.3987 10.3819 19.4399 10.4493L19.56 10.6531L19.59 10.7036L19.6181 10.7552L19.6741 10.8577C19.751 10.9922 19.8158 11.1308 19.8837 11.261L19.9753 11.4577L20.0197 11.5527L20.0598 11.647C20.0863 11.7087 20.1121 11.7689 20.1371 11.827L20.2039 11.9975L20.2353 12.0776C20.2449 12.103 20.2569 12.1306 20.2634 12.1518L20.3066 12.2783L20.3455 12.3887L20.3888 12.5179L20.4272 12.633C20.433 12.6505 20.4424 12.6666 20.4547 12.6804C20.4671 12.6942 20.4821 12.7053 20.4989 12.713C20.5156 12.7208 20.5338 12.725 20.5523 12.7255C20.5708 12.7259 20.5892 12.7226 20.6063 12.7157L24.7165 11.0643ZM12.6446 5.93888L12.7635 5.95511L12.9028 5.97936L13.0608 6.0065C13.1091 6.01453 13.1592 6.02619 13.2113 6.03708L14.7074 2.97685L14.4876 2.94253C14.4382 2.93519 14.3896 2.92675 14.3411 2.9207L14.1976 2.90332L13.9229 2.87068L13.6656 2.84862C13.5831 2.8423 13.5044 2.83397 13.4291 2.83039L13.2156 2.81989L13.0281 2.81103L12.8688 2.80847L12.6977 2.80641C12.6626 2.80599 12.6287 2.81921 12.6031 2.8433C12.5776 2.86739 12.5624 2.90045 12.5608 2.93552L12.4243 5.78386C12.4227 5.8177 12.4338 5.85093 12.4554 5.877C12.477 5.90307 12.5076 5.92008 12.5412 5.92469L12.6446 5.93888ZM16.6656 7.50728C16.7058 7.53651 16.7439 7.56423 16.7797 7.59032L16.8802 7.66229C16.8937 7.67153 16.9158 7.68836 16.934 7.70184L16.9873 7.74165L17.0844 7.81414C17.0993 7.8252 17.1162 7.8331 17.1342 7.83736C17.1522 7.84163 17.1708 7.84217 17.189 7.83895C17.2072 7.83573 17.2246 7.82881 17.24 7.81864C17.2554 7.80846 17.2686 7.79523 17.2787 7.77977L19.232 4.80441C19.2422 4.78897 19.2491 4.77162 19.2523 4.75341C19.2555 4.73521 19.255 4.71654 19.2507 4.69855C19.2464 4.68057 19.2385 4.66365 19.2274 4.64885C19.2164 4.63404 19.2024 4.62165 19.1864 4.61246L19.0812 4.55215L19.0235 4.51901L18.9544 4.47994L18.7745 4.38083C18.7103 4.34582 18.6419 4.30859 18.5698 4.26929C18.4978 4.23319 18.4257 4.19708 18.3537 4.16097C18.278 4.12406 18.2009 4.083 18.1181 4.04574L17.8631 3.92887C17.7762 3.88784 17.6845 3.85058 17.5913 3.81147C17.4978 3.77319 17.4038 3.73134 17.3055 3.69441L17.2303 3.66592L16.3876 7.32333C16.4342 7.35259 16.4781 7.38361 16.5213 7.4116L16.6656 7.50728ZM10.0218 5.92398C10.0596 5.919 10.0966 5.91284 10.1336 5.90893L10.2432 5.8978L10.4527 5.87604L10.6491 5.86287L10.7413 5.85657C10.7713 5.85457 10.8013 5.85201 10.827 5.85198L10.9777 5.84805L11.1097 5.84387L11.2479 5.84296L11.3691 5.8423C11.3876 5.8422 11.4059 5.83831 11.4228 5.83088C11.4397 5.82345 11.4549 5.81263 11.4675 5.7991C11.4801 5.78556 11.4898 5.7696 11.496 5.75218C11.5022 5.73476 11.5047 5.71626 11.5035 5.69782L11.3276 3.01467C11.3265 2.99622 11.3215 2.97821 11.3131 2.96175C11.3047 2.94529 11.293 2.93073 11.2788 2.91895C11.2645 2.90717 11.248 2.89844 11.2303 2.89328C11.2125 2.88813 11.1939 2.88666 11.1756 2.88897L11.0553 2.90415L10.9154 2.92196L10.7206 2.95084L10.4997 2.9845C10.4598 2.99011 10.4232 2.99756 10.3847 3.00482L10.267 3.02729L10.0174 3.07552L9.75229 3.13591L9.61427 3.16765C9.56774 3.17854 9.52108 3.19185 9.47375 3.20409L9.18473 3.28108L8.88891 3.37027C8.83908 3.38569 8.78873 3.40024 8.73868 3.41671L8.58834 3.468L8.43709 3.51984C8.38649 3.53705 8.33581 3.55435 8.28582 3.57407L7.98434 3.68915C7.88415 3.72837 7.78562 3.77182 7.68687 3.81293C7.63765 3.83391 7.58828 3.85415 7.53964 3.87568L7.39518 3.94237L7.25215 4.00862C7.20472 4.03056 7.15747 4.05218 7.11155 4.07602L6.83878 4.21374C6.74921 4.25865 6.66385 4.3082 6.57907 4.35382C6.49467 4.4003 6.41168 4.44463 6.33339 4.49239L6.10398 4.62849C6.02968 4.67183 5.96077 4.71863 5.89323 4.76093L5.70076 4.88432L5.53086 5.00092L5.38187 5.10352C5.33589 5.13523 5.29522 5.16666 5.25773 5.19383L5.12849 5.28925C5.10031 5.31007 5.0813 5.34099 5.07545 5.37553C5.0696 5.41007 5.07736 5.44553 5.09711 5.47446L6.21126 7.11252C6.23033 7.14065 6.25928 7.16057 6.29237 7.16834C6.32546 7.1761 6.36025 7.17113 6.38984 7.15443L6.48972 7.09808C6.52297 7.07968 6.55894 7.05796 6.59956 7.03681C6.64015 7.01563 6.68404 6.99281 6.73092 6.96839L6.87989 6.89051L7.04783 6.80999C7.10663 6.7826 7.16627 6.75122 7.23059 6.72386L7.42829 6.6371C7.49547 6.60616 7.56664 6.57913 7.63864 6.55026C7.71101 6.52221 7.7835 6.49047 7.85943 6.46366L8.08972 6.38066C8.1283 6.36601 8.16801 6.35361 8.2078 6.3409L8.32751 6.30237L8.4479 6.26343C8.48838 6.25114 8.52944 6.24014 8.57022 6.22837C8.65214 6.20571 8.73351 6.18058 8.81601 6.15951L9.06334 6.09832C9.10415 6.08746 9.14557 6.07896 9.18679 6.07047L9.30985 6.04456L9.43165 6.01871C9.47215 6.01063 9.51288 6.00439 9.55306 5.99715L9.79088 5.95588L10.0218 5.92398ZM2.42479 8.04184L2.33682 8.16631L2.24838 8.29168C2.21893 8.33367 2.19137 8.37723 2.16272 8.42007C2.10623 8.50634 2.04843 8.59195 1.9931 8.67918L1.83121 8.94276L1.79106 9.00838L1.75294 9.07506L1.67721 9.20767C1.57436 9.38237 1.48501 9.56096 1.39421 9.73058L1.26966 9.98539L1.20977 10.1088L1.1548 10.2309L1.04983 10.4648L0.958284 10.686C0.929519 10.7571 0.900452 10.8244 0.875675 10.8897L0.806183 11.0754L0.745353 11.2385L0.697669 11.3783L0.649792 11.5204C0.638625 11.5536 0.64072 11.5898 0.655638 11.6214C0.670555 11.653 0.697137 11.6777 0.729816 11.6902L1.76683 12.0877C1.83283 12.113 1.90716 12.0835 1.93766 12.0197L1.99161 11.9069L2.04862 11.7884L2.12001 11.6507C2.14542 11.6018 2.17243 11.5495 2.20092 11.4945C2.22963 11.4397 2.26268 11.3835 2.29549 11.3241L2.39916 11.1397L2.51609 10.946L2.57686 10.8451C2.59845 10.8117 2.62031 10.778 2.6424 10.7437L2.77759 10.535C2.8751 10.3969 2.97047 10.2516 3.07824 10.1113L3.15749 10.0047L3.19723 9.95112L3.23887 9.89876L3.40563 9.68886C3.4623 9.61967 3.52112 9.55227 3.5783 9.48429C3.60728 9.45055 3.63511 9.41612 3.66478 9.38331L3.75355 9.28535L3.84141 9.18825C3.86999 9.1559 3.89944 9.12432 3.92972 9.09354L4.10602 8.91095C4.16379 8.85108 4.2241 8.79553 4.28102 8.73937C4.33839 8.68363 4.39388 8.62863 4.45103 8.57823L4.61482 8.42918C4.66729 8.38075 4.72135 8.33752 4.77129 8.29413L4.91555 8.17126C4.96054 8.13564 5.00322 8.10187 5.04332 8.07008C5.08056 8.04044 5.1178 8.01079 5.15502 7.98112C5.17086 7.96803 5.19231 7.95236 5.21043 7.93858L5.26359 7.89849L5.36034 7.82547C5.37509 7.81434 5.3874 7.8003 5.39652 7.78422C5.40564 7.76815 5.41138 7.75037 5.41337 7.732C5.41537 7.71362 5.41358 7.69503 5.40812 7.67737C5.40266 7.65972 5.39364 7.64336 5.38162 7.62932L4.20092 6.24611C4.18894 6.23204 4.1742 6.22056 4.15762 6.2124C4.14104 6.20423 4.12296 6.19955 4.1045 6.19864C4.08604 6.19772 4.06758 6.2006 4.05028 6.20708C4.03297 6.21357 4.01717 6.22353 4.00385 6.23635L3.91657 6.32044L3.86861 6.36661C3.85153 6.38319 3.83528 6.39829 3.81411 6.41993L3.6831 6.55215L3.53482 6.70258L3.382 6.8681C3.32942 6.9262 3.27272 6.98475 3.21786 7.04894L3.0473 7.24666C2.98804 7.3137 2.9307 7.38573 2.87172 7.45879C2.81317 7.53224 2.75146 7.60553 2.69258 7.68319C2.63387 7.76085 2.5742 7.8398 2.51381 7.91977C2.48313 7.95972 2.45345 8.00042 2.42479 8.04184ZM0.27926 12.8915L0.255115 13.0103C0.245851 13.0559 0.236583 13.1015 0.227313 13.1471C0.217386 13.1981 0.207678 13.2582 0.196843 13.3196L0.162909 13.517C0.157134 13.5517 0.150534 13.5875 0.145061 13.6236L0.130156 13.7336C0.110797 13.8836 0.0853043 14.0449 0.0706194 14.2173L0.0444121 14.4815C0.0370422 14.5718 0.0321197 14.6643 0.0257673 14.758C0.0109174 14.9453 0.00819493 15.1395 0.00200748 15.336L0 15.4099L0.000357497 15.4841C0.00092827 15.5835 0.0014966 15.6828 0.00206248 15.7822L0.00252998 15.8569L0.00538995 15.9317L0.0175173 16.2298L0.0205698 16.3039L0.0215048 16.3279L0.0228248 16.3458L0.0254648 16.3815L0.0359697 16.524L0.0463921 16.6653L0.060582 16.8113L0.0747719 16.9554L0.0818668 17.0266L0.0906667 17.0961L0.125179 17.3676L0.165026 17.6264C0.177126 17.7105 0.192718 17.7918 0.207046 17.8704L0.210566 17.8891C0.216324 17.9203 0.232807 17.9484 0.257151 17.9687C0.281496 17.9889 0.312164 18 0.34383 18H0.709329C0.727809 18 0.746095 17.9962 0.763063 17.9889C0.780031 17.9816 0.795324 17.9709 0.808002 17.9574C0.820681 17.944 0.830477 17.9281 0.836789 17.9107C0.843101 17.8933 0.845797 17.8749 0.84471 17.8564C0.843473 17.8356 0.842208 17.8146 0.840805 17.7934C0.83624 17.7176 0.83074 17.6395 0.82898 17.5588L0.820868 17.311C0.820192 17.2028 0.819532 17.0946 0.818888 16.9864L0.820345 16.9209L0.82326 16.7885L0.826203 16.6547L0.832803 16.5132L0.83943 16.3706L0.841108 16.3347L0.841933 16.3168L0.842043 16.3145C0.842043 16.3088 0.842153 16.3198 0.842208 16.3179L0.842538 16.3136L0.843225 16.3049L0.84878 16.2356L0.870972 15.9573L0.876637 15.8879L0.88464 15.8185L0.90059 15.6803L0.916402 15.5427L0.924239 15.4743L0.934387 15.4064C0.962217 15.2257 0.985866 15.048 1.02052 14.8778C1.03677 14.7925 1.05132 14.7087 1.06801 14.627L1.12125 14.3887C1.15326 14.2336 1.19475 14.0894 1.22852 13.9557L1.25393 13.8577C1.26268 13.8263 1.27211 13.7966 1.2808 13.7671L1.33058 13.6005C1.34655 13.5477 1.35967 13.5005 1.37496 13.4532L1.41899 13.3207L1.45718 13.2056C1.463 13.188 1.46517 13.1695 1.46355 13.1511C1.46193 13.1326 1.45656 13.1148 1.44778 13.0985C1.43899 13.0822 1.42696 13.068 1.41244 13.0565C1.39792 13.0451 1.38122 13.0367 1.36336 13.032L0.447091 12.7877C0.429235 12.7829 0.410587 12.7818 0.392296 12.7845C0.374004 12.7872 0.356456 12.7936 0.340733 12.8033C0.32501 12.813 0.311444 12.8259 0.300872 12.841C0.2903 12.8562 0.282945 12.8734 0.27926 12.8915ZM10.6511 17.6406C10.9492 17.7864 11.265 17.8554 11.5759 17.8554C12.3563 17.8554 13.1062 17.4206 13.4721 16.6723C13.5425 16.5283 13.5971 16.3692 13.6325 16.2195L15.7659 6.95984L16.5783 3.43346L17.0817 1.24896C17.1402 0.994727 16.938 0.821533 16.7351 0.821533C16.6163 0.821533 16.4973 0.880905 16.4302 1.0181L15.406 3.11312L13.8951 6.2037L9.68278 14.8197C9.1712 15.8661 9.60476 17.1291 10.6511 17.6406ZM11.6541 14.6587C12.225 14.6587 12.6878 15.1215 12.6878 15.6924C12.6878 16.2632 12.225 16.726 11.6541 16.726C11.0832 16.726 10.6204 16.2632 10.6204 15.6924C10.6204 15.1214 11.0832 14.6587 11.6541 14.6587Z" fill="#333333"/>
</svg>
