<svg width="19" height="23" viewBox="0 0 19 23" fill="none" xmlns="http://www.w3.org/2000/svg">
<path d="M18.2542 0.173794C18.1374 0.0602484 17.9802 -0.00224261 17.8173 6.15297e-05C17.6544 0.00236567 17.499 0.0692763 17.3854 0.186081C16.8788 0.707135 14.329 3.42483 13.882 5.75924C13.5491 7.49811 14.1836 9.44417 14.7971 11.3263C15.2292 12.6516 15.6373 13.9034 15.6373 14.8981C15.6373 15.7654 15.2681 16.2334 14.9208 16.2334C14.609 16.2334 14.2806 15.8275 14.2806 15.0517C14.2806 14.0948 14.2839 11.3147 12.0568 10.9457V4.45403C12.0568 4.11475 11.8073 3.87807 11.468 3.87807H10.6745V3.22532C10.6745 2.88604 10.425 2.64935 10.0857 2.64935H3.86532C3.52604 2.64935 3.22539 2.88604 3.22539 3.22532V3.87807H2.5598C2.22052 3.87807 1.91987 4.11475 1.91987 4.45403V20.389H0.639932C0.300652 20.389 0 20.6257 0 20.9649V22.3472C0 22.6865 0.300652 23 0.639932 23H13.3879C13.7272 23 13.9767 22.6865 13.9767 22.3472V20.9649C13.9767 20.6257 13.7272 20.389 13.3879 20.389H12.0568V12.2033C12.5176 12.375 13.0519 12.9725 13.0519 15.0518C13.0519 16.7078 14.0205 17.4622 14.9144 17.4622C15.8811 17.4622 16.8629 16.5816 16.8629 14.8982C16.8629 13.7084 16.427 12.3664 15.9637 10.9455C15.6446 9.96653 15.3202 8.96881 15.1466 8.02853C16.1272 7.81719 16.7802 7.35896 17.0889 6.66166C17.6846 5.31613 16.6871 3.67787 16.4201 3.27784C16.9767 2.47749 17.6356 1.69141 18.2664 1.04257C18.3226 0.984735 18.3669 0.916381 18.3967 0.841417C18.4266 0.766452 18.4414 0.686346 18.4402 0.605671C18.4391 0.524997 18.4221 0.445334 18.3902 0.371233C18.3583 0.297131 18.3121 0.230041 18.2542 0.173794ZM10.6745 10.252C10.6745 10.415 10.6098 10.5713 10.4945 10.6865C10.3793 10.8017 10.2231 10.8664 10.0601 10.8664H3.83975C3.67681 10.8664 3.52054 10.8017 3.40533 10.6865C3.29011 10.5713 3.22539 10.415 3.22539 10.252V5.87474C3.22539 5.7118 3.29011 5.55554 3.40533 5.44032C3.52054 5.32511 3.67681 5.26038 3.83975 5.26038H10.0601C10.2231 5.26038 10.3793 5.32511 10.4945 5.44032C10.6098 5.55554 10.6745 5.7118 10.6745 5.87474V10.252ZM15.9652 6.16556C15.8346 6.45892 15.517 6.67041 15.0199 6.79751C15.0184 6.5182 15.0395 6.24827 15.0888 5.99024C15.1767 5.5317 15.3899 5.00903 15.6838 4.46363C15.9379 4.98023 16.1773 5.68874 15.9652 6.16556Z" fill="#333333"/>
</svg>
