<svg width="24" height="24" viewBox="0 0 24 24" fill="none" xmlns="http://www.w3.org/2000/svg">
<path d="M20.4853 3.606C18.2188 1.33954 15.2053 0.0913086 12 0.0913086C8.79469 0.0913086 5.78123 1.33954 3.51469 3.606C1.2525 5.86823 0.00473438 8.93962 0 12.1382C0 14.9135 0.968672 17.6018 2.72944 19.7411C4.46606 21.8511 6.88805 23.3172 9.54923 23.8694C9.73904 23.9089 9.9324 23.9288 10.1263 23.9289C10.7672 23.9288 11.3918 23.71 11.8999 23.2966C12.5588 22.7605 12.9367 21.9659 12.9369 21.1164L12.9375 17.0619C15.0211 16.6373 16.5938 14.7907 16.5938 12.5835V10.1694C16.5938 9.65165 16.1741 9.23193 15.6563 9.23193H14.8595V6.84131C14.8595 6.32353 14.4398 5.90381 13.922 5.90381C13.4042 5.90381 12.9845 6.32353 12.9845 6.84131V9.23193H11.1095V6.84131C11.1095 6.32353 10.6897 5.90381 10.172 5.90381C9.65419 5.90381 9.23447 6.32353 9.23447 6.84131V9.23193H8.39072C7.87294 9.23193 7.45322 9.65165 7.45322 10.1694V12.5835C7.45322 14.774 9.00234 16.6092 11.0625 17.0518L11.0619 21.1161C11.0618 21.5034 10.8455 21.7373 10.7165 21.8422C10.608 21.9307 10.4811 21.9938 10.3451 22.027C10.209 22.0601 10.0673 22.0623 9.93023 22.0335C5.26786 21.066 1.88231 16.9066 1.87402 12.1382C1.87402 12.1382 1.87505 12.1499 1.87505 12.1382C1.87505 6.55523 6.41709 1.96631 12 1.96631C17.583 1.96631 22.125 6.50836 22.125 12.0913C22.125 16.1843 19.6999 19.8566 15.9468 21.4469C15.4701 21.6488 15.2473 22.1991 15.4493 22.6758C15.6514 23.1526 16.2016 23.3753 16.6783 23.1733C18.8205 22.2656 20.6445 20.7571 21.9532 18.8109C23.2922 16.8195 24 14.4959 24 12.0913C24 8.886 22.7518 5.8725 20.4853 3.606ZM9.32812 12.5835V11.1069H14.7188V12.5835C14.7188 14.0697 13.5097 15.2788 12.0234 15.2788C10.5372 15.2788 9.32812 14.0697 9.32812 12.5835Z" fill="#333333"/>
</svg>
